<?xml version="1.0" encoding="UTF-8" standalone="no"?><!DOCTYPE svg PUBLIC "-//W3C//DTD SVG 1.1//EN" "http://www.w3.org/Graphics/SVG/1.1/DTD/svg11.dtd"><svg width="100%" height="100%" viewBox="0 0 5524 1053" version="1.1" xmlns="http://www.w3.org/2000/svg" xmlns:xlink="http://www.w3.org/1999/xlink" xml:space="preserve" style="fill-rule:evenodd;clip-rule:evenodd;stroke-linejoin:round;stroke-miterlimit:1.41421;"><g><g><path d="M1520.99,251.544c-32.32,-62.578 -83.895,-89.397 -141.659,-89.397c-74.955,0 -154.724,42.635 -156.787,140.284c-1.375,98.336 93.522,132.031 143.034,144.409c34.383,8.94 78.394,27.507 75.643,73.58c-1.375,31.633 -28.194,56.389 -66.015,55.701c-28.195,0 -68.767,-19.942 -92.148,-70.142l-75.643,43.323c40.573,92.835 110.714,115.528 165.728,115.528c77.706,0 162.288,-44.011 166.414,-138.908c4.126,-108.651 -74.955,-145.097 -149.911,-164.352c-28.194,-8.252 -71.517,-24.068 -70.141,-59.827c2.063,-36.446 30.945,-50.199 59.139,-49.512c22.693,0 49.512,8.94 68.079,41.948l74.267,-42.635Z" style="fill-rule:nonzero;"/><path d="M1765.8,574.746c-39.885,4.814 -62.578,-11.69 -62.578,-34.383l0,-158.851l62.578,0l0,-75.643l-62.578,0l0,-132.719l-91.459,0l0,132.719l-38.509,0l0,75.643l38.509,0l0,160.914c-3.438,92.834 74.955,124.467 154.037,112.089l0,-79.769Z" style="fill-rule:nonzero;"/><path d="M1959.72,585.061c-45.386,0 -70.829,-22.693 -70.142,-46.761c1.376,-50.2 86.646,-52.951 131.344,-33.008l0,55.013c-15.128,12.378 -40.572,24.756 -61.202,24.756Zm154.037,69.454l0,-209.05c0,-101.774 -74.268,-149.911 -154.037,-149.911c-46.073,0 -92.834,14.441 -134.094,47.449l31.632,57.764c28.195,-15.817 59.139,-26.819 93.523,-26.819c35.071,0 69.454,15.816 69.454,59.827c-91.46,-29.57 -217.99,6.876 -217.99,110.714c0,59.826 48.824,117.59 140.284,117.59c27.506,0 61.889,-11.002 83.895,-38.509l12.378,30.945l74.955,0Z" style="fill-rule:nonzero;"/><path d="M2198.34,302.431l0,352.084l92.835,0l0,-217.302c0,-57.076 67.391,-67.391 111.401,-38.509l39.885,-70.83c-46.074,-39.884 -118.966,-41.26 -160.226,11.003l-7.564,-36.446l-76.331,0Z" style="fill-rule:nonzero;"/><path d="M2635.69,574.746c-39.884,4.814 -62.577,-11.69 -62.577,-34.383l0,-158.851l62.577,0l0,-75.643l-62.577,0l0,-132.719l-91.459,0l0,132.719l-38.51,0l0,75.643l38.51,0l0,160.914c-3.439,92.834 74.955,124.467 154.036,112.089l0,-79.769Z" style="fill-rule:nonzero;"/><path d="M3010.47,221.051l-94.897,0l0,350.944c-59.139,20.63 -137.533,0.688 -134.782,-71.517l0,-194.609l-93.523,0l0,193.921c0,105.213 80.457,161.602 178.793,161.602c44.698,0 89.396,-6.877 144.409,-26.132l0,-414.209Z" style="fill-rule:nonzero;"/><path d="M3201.64,785.171l0,-132.031c17.192,4.126 35.071,6.876 50.887,6.876c101.775,0 178.105,-85.958 178.105,-183.606c0,-90.084 -65.328,-178.793 -182.918,-178.793c-39.885,0 -85.958,3.438 -140.284,22.693l0,464.861l94.21,0Zm0,-400.908c15.129,-2.751 31.633,-3.438 46.074,-4.126c58.451,0 90.084,51.575 89.396,96.273c-0.688,56.388 -43.323,98.336 -95.585,98.336c-13.066,0 -24.756,-2.063 -39.885,-7.564l0,-182.919Z" style="fill-rule:nonzero;"/><path d="M3644.5,585.061c-45.386,0 -70.829,-22.693 -70.142,-46.761c1.376,-50.2 86.646,-52.951 131.344,-33.008l0,55.013c-15.128,12.378 -40.572,24.756 -61.202,24.756Zm154.037,69.454l0,-209.05c0,-101.774 -74.268,-149.911 -154.037,-149.911c-46.073,0 -92.835,14.441 -134.094,47.449l31.632,57.764c28.194,-15.817 59.139,-26.819 93.522,-26.819c35.071,0 69.455,15.816 69.455,59.827c-91.46,-29.57 -217.99,6.876 -217.99,110.714c0,59.826 48.824,117.59 140.283,117.59c27.507,0 61.89,-11.002 83.896,-38.509l12.377,30.945l74.956,0Z" style="fill-rule:nonzero;"/><path d="M4018.59,578.184c-39.197,3.439 -48.137,-17.191 -48.137,-35.071l0,-369.963l-94.21,0l0,369.963c0,96.273 63.265,125.155 142.347,112.09l0,-77.019Z" style="fill-rule:nonzero;"/><path d="M4147.87,480.536c0,-66.016 50.2,-97.649 92.147,-97.649c44.011,0 90.772,29.57 90.772,97.649c0,63.953 -46.761,97.648 -90.772,97.648c-41.947,0 -92.147,-33.695 -92.147,-97.648Zm275.754,0c0,-110.026 -78.394,-184.294 -183.607,-184.294c-104.525,0 -184.294,74.268 -184.294,184.294c0,107.275 79.769,183.606 184.294,183.606c105.213,0 183.607,-76.331 183.607,-183.606Z" style="fill-rule:nonzero;"/><path d="M4569.41,480.536c0,-66.016 50.199,-97.649 92.147,-97.649c44.01,0 90.771,29.57 90.771,97.649c0,63.953 -46.761,97.648 -90.771,97.648c-41.948,0 -92.147,-33.695 -92.147,-97.648Zm275.753,0c0,-110.026 -78.394,-184.294 -183.606,-184.294c-104.525,0 -184.294,74.268 -184.294,184.294c0,107.275 79.769,183.606 184.294,183.606c105.212,0 183.606,-76.331 183.606,-183.606Z" style="fill-rule:nonzero;"/><path d="M5065.9,380.825l0.688,2.75l-34.383,30.257l-143.722,184.982l42.635,55.701l233.806,0l0,-79.081l-129.281,0l-41.26,6.189l-0.687,-2.063l34.383,-30.258l140.283,-187.044l-35.07,-57.077l-222.804,0l0,79.769l114.84,0l40.572,-4.125Z" style="fill-rule:nonzero;"/><path d="M5369.85,585.061c-45.386,0 -70.829,-22.693 -70.142,-46.761c1.376,-50.2 86.646,-52.951 131.344,-33.008l0,55.013c-15.128,12.378 -40.572,24.756 -61.202,24.756Zm154.037,69.454l0,-209.05c0,-101.774 -74.268,-149.911 -154.037,-149.911c-46.073,0 -92.835,14.441 -134.094,47.449l31.632,57.764c28.194,-15.817 59.139,-26.819 93.522,-26.819c35.071,0 69.455,15.816 69.455,59.827c-91.46,-29.57 -217.99,6.876 -217.99,110.714c0,59.826 48.824,117.59 140.283,117.59c27.507,0 61.89,-11.002 83.896,-38.509l12.377,30.945l74.956,0Z" style="fill-rule:nonzero;"/></g><path d="M2963.99,123.038l97.725,118.77l-195.45,0l97.725,-118.77Z"/></g><g><path d="M793.84,0c115.977,0.001 210.133,94.158 210.133,210.133l0,420.265c0,115.975 -94.157,210.133 -210.133,210.133l-159.794,0l76.324,-150.838l100.474,51.148l-64.629,-279.184l-263.77,112.007l94.161,47.934l-110.78,218.933l-255.693,0c-115.976,0 -210.133,-94.158 -210.133,-210.133l0,-420.265c0,-115.975 94.156,-210.132 210.133,-210.133l583.707,0Z" style="fill:#f7bc20;"/><g><path d="M520.292,146.318l64.629,279.184l-328.4,-167.177l263.771,-112.007Z"/><path d="M501.255,338.114l-134.061,-67.507l-359.718,714.36l168.764,-0.092l325.015,-646.761Z"/></g></g></svg>