<?xml version="1.0" standalone="no"?>
<svg viewBox="0 0 200 200" xmlns="http://www.w3.org/2000/svg">
  <path fill="#D8D8D8" d="M35.3,-58C49.6,-52.8,67.9,-51.3,72.7,-42.2C77.4,-33.2,68.7,-16.6,67.1,-0.9C65.5,14.8,71.1,29.5,66.7,39.2C62.3,48.8,47.8,53.3,35,58.5C22.3,63.7,11.1,69.5,-1.7,72.4C-14.5,75.4,-29,75.4,-37.7,67.9C-46.4,60.3,-49.2,45.2,-55.6,32.6C-61.9,20,-71.8,10,-77,-3C-82.2,-16.1,-82.8,-32.1,-72.5,-37.8C-62.2,-43.6,-41,-38.9,-27.1,-44.4C-13.2,-49.8,-6.6,-65.3,1.9,-68.7C10.5,-72,20.9,-63.2,35.3,-58Z" transform="translate(100 100)" />
</svg>
